<svg xmlns="http://www.w3.org/2000/svg" class="icon icon-tabler icon-tabler-passion" width="24" height="24" viewBox="0 0 24 24" stroke-width="2" stroke="currentColor" fill="none" stroke-linecap="round" stroke-linejoin="round">
  <path stroke="none" d="M0 0h24v24H0z" fill="none"/>
  <!-- Base rectangle, similar to the archive icon -->
  <rect x="3" y="4" width="18" height="4" rx="2" />
  <path d="M5 8v10a2 2 0 0 0 2 2h10a2 2 0 0 0 2 -2v-10" />
  <!-- Heart shape in the center to represent passion -->
  <path d="M12 13.5l-.35-.35c-1.5 -1.5 -4 -1.5 -5.5 0c-1.5 1.5 -1.5 4 0 5.5c1.5 1.5 4 1.5 5.5 0l.35 -.35l.35 .35c1.5 1.5 4 1.5 5.5 0c1.5 -1.5 1.5 -4 0 -5.5c-1.5 -1.5 -4 -1.5 -5.5 0l-.35 .35z" />
</svg>